# xmcd
#
# Track frame offsets:
#	150
#	56388
#	76146
#	117453
#	176436
#	219553
#	248272
#	307864
#
# Disc length: 4756 seconds
#
# Revision: 0
# Processed by: cddbd v1.5.2PL0 Copyright (c) Steve Scherf et al.
# Submitted via: audiograbber 1.83.01
#
DISCID=58129208
DTITLE=Grateful Dead - 93-06-15 Freedom Hall, Louisville KY
DYEAR=1900
DGENRE=
TTITLE0=Estimated Prophet
TTITLE1=Spoonful
TTITLE2=He's Gone
TTITLE3=Drums
TTITLE4=Space
TTITLE5=The Last Time
TTITLE6=Morning Dew
TTITLE7=Gloria
EXTD=
EXTT0=
EXTT1=
EXTT2=
EXTT3=
EXTT4=
EXTT5=
EXTT6=
EXTT7=
PLAYORDER=
